<mxfile host="app.diagrams.net" agent="Mozilla/5.0 (Windows NT 10.0; Win64; x64) AppleWebKit/537.36 (KHTML, like Gecko) Chrome/140.0.0.0 Safari/537.36" version="28.2.0">
  <diagram id="ftWZq_VRNbrS53hTb8M5" name="PÃ¡gina-1">
    <mxGraphModel grid="1" page="1" gridSize="10" guides="1" tooltips="1" connect="1" arrows="1" fold="1" pageScale="1" pageWidth="827" pageHeight="1169" background="#ffffff" math="0" shadow="0">
      <root>
        <mxCell id="0" />
        <mxCell id="1" parent="0" />
        <mxCell id="ky9jY6T5JHGda51nhSNB-2" value="" style="whiteSpace=wrap;html=1;aspect=fixed;labelBackgroundColor=#FFF4C3;textShadow=1;labelBorderColor=#FFF4C3;fillColor=#ffe6cc;strokeColor=#d79b00;glass=0;rounded=0;shadow=1;movable=1;resizable=1;rotatable=1;deletable=1;editable=1;locked=0;connectable=1;container=0;" vertex="1" parent="1">
          <mxGeometry x="130" y="70" width="450" height="450" as="geometry">
            <mxRectangle x="140" y="90" width="50" height="40" as="alternateBounds" />
          </mxGeometry>
        </mxCell>
        <mxCell id="ky9jY6T5JHGda51nhSNB-30" value="" style="rounded=0;whiteSpace=wrap;html=1;direction=south;fillColor=#e1d5e7;strokeColor=#9673a6;dashed=1;shadow=1;" vertex="1" parent="1">
          <mxGeometry x="150" y="90" width="125" height="240" as="geometry" />
        </mxCell>
        <mxCell id="ky9jY6T5JHGda51nhSNB-4" value="Application&amp;nbsp;" style="text;html=1;align=center;verticalAlign=middle;whiteSpace=wrap;rounded=0;fontFamily=Verdana;shadow=1;textShadow=0;fontStyle=1" vertex="1" parent="1">
          <mxGeometry x="160" y="90" width="110" height="30" as="geometry" />
        </mxCell>
        <mxCell id="ky9jY6T5JHGda51nhSNB-7" value="&lt;font style=&quot;font-size: 9px;&quot; face=&quot;Verdana&quot;&gt;GUI&lt;/font&gt;" style="rounded=1;whiteSpace=wrap;html=1;shadow=1;" vertex="1" parent="1">
          <mxGeometry x="170" y="140" width="80" height="30" as="geometry" />
        </mxCell>
        <mxCell id="ky9jY6T5JHGda51nhSNB-9" value="&lt;font style=&quot;font-size: 9px;&quot;&gt;Domain Rule&lt;/font&gt;" style="rounded=1;whiteSpace=wrap;html=1;shadow=1;" vertex="1" parent="1">
          <mxGeometry x="170" y="220" width="80" height="30" as="geometry" />
        </mxCell>
        <mxCell id="ky9jY6T5JHGda51nhSNB-31" style="edgeStyle=orthogonalEdgeStyle;rounded=0;orthogonalLoop=1;jettySize=auto;html=1;exitX=1;exitY=0.5;exitDx=0;exitDy=0;dashed=1;shadow=1;entryX=0.052;entryY=1.031;entryDx=0;entryDy=0;entryPerimeter=0;" edge="1" parent="1" source="ky9jY6T5JHGda51nhSNB-10" target="ky9jY6T5JHGda51nhSNB-32">
          <mxGeometry relative="1" as="geometry">
            <mxPoint x="310" y="305" as="targetPoint" />
          </mxGeometry>
        </mxCell>
        <mxCell id="ky9jY6T5JHGda51nhSNB-10" value="&lt;font style=&quot;font-size: 9px;&quot;&gt;Data&lt;/font&gt;" style="rounded=1;whiteSpace=wrap;html=1;shadow=1;" vertex="1" parent="1">
          <mxGeometry x="170" y="290" width="80" height="30" as="geometry" />
        </mxCell>
        <mxCell id="ky9jY6T5JHGda51nhSNB-17" value="" style="endArrow=classic;html=1;rounded=0;entryX=0.5;entryY=0;entryDx=0;entryDy=0;shadow=1;" edge="1" parent="1" target="ky9jY6T5JHGda51nhSNB-9">
          <mxGeometry relative="1" as="geometry">
            <mxPoint x="210" y="170" as="sourcePoint" />
            <mxPoint x="310" y="170" as="targetPoint" />
          </mxGeometry>
        </mxCell>
        <mxCell id="ky9jY6T5JHGda51nhSNB-18" value="" style="shape=message;html=1;outlineConnect=0;shadow=1;" vertex="1" parent="ky9jY6T5JHGda51nhSNB-17">
          <mxGeometry width="20" height="14" relative="1" as="geometry">
            <mxPoint x="-10" y="-7" as="offset" />
          </mxGeometry>
        </mxCell>
        <mxCell id="ky9jY6T5JHGda51nhSNB-27" value="" style="endArrow=classic;html=1;rounded=0;shadow=1;" edge="1" parent="1" target="ky9jY6T5JHGda51nhSNB-10">
          <mxGeometry relative="1" as="geometry">
            <mxPoint x="210" y="250" as="sourcePoint" />
            <mxPoint x="310" y="250" as="targetPoint" />
          </mxGeometry>
        </mxCell>
        <mxCell id="ky9jY6T5JHGda51nhSNB-28" value="" style="shape=message;html=1;outlineConnect=0;shadow=1;" vertex="1" parent="ky9jY6T5JHGda51nhSNB-27">
          <mxGeometry width="20" height="14" relative="1" as="geometry">
            <mxPoint x="-10" y="-7" as="offset" />
          </mxGeometry>
        </mxCell>
        <mxCell id="ky9jY6T5JHGda51nhSNB-32" value="" style="rounded=0;whiteSpace=wrap;html=1;direction=south;dashed=1;fillColor=#f8cecc;strokeColor=#b85450;shadow=1;" vertex="1" parent="1">
          <mxGeometry x="310" y="170" width="90" height="160" as="geometry" />
        </mxCell>
        <mxCell id="ky9jY6T5JHGda51nhSNB-33" value="Database" style="text;html=1;align=center;verticalAlign=middle;whiteSpace=wrap;rounded=0;fontSize=9;fontFamily=Verdana;shadow=1;fontStyle=1" vertex="1" parent="1">
          <mxGeometry x="325" y="170" width="60" height="30" as="geometry" />
        </mxCell>
        <mxCell id="ky9jY6T5JHGda51nhSNB-34" value="&lt;font style=&quot;font-size: 9px;&quot;&gt;SQLite&lt;/font&gt;" style="rounded=1;whiteSpace=wrap;html=1;glass=0;shadow=1;" vertex="1" parent="1">
          <mxGeometry x="315" y="210" width="80" height="30" as="geometry" />
        </mxCell>
        <mxCell id="ky9jY6T5JHGda51nhSNB-38" value="&lt;font style=&quot;font-size: 9px;&quot;&gt;Firebase&lt;/font&gt;" style="rounded=1;whiteSpace=wrap;html=1;glass=0;shadow=1;" vertex="1" parent="1">
          <mxGeometry x="315" y="290" width="80" height="30" as="geometry" />
        </mxCell>
        <mxCell id="ky9jY6T5JHGda51nhSNB-39" value="" style="endArrow=classic;html=1;rounded=0;exitX=0.5;exitY=1;exitDx=0;exitDy=0;dashed=1;" edge="1" parent="1" source="ky9jY6T5JHGda51nhSNB-10">
          <mxGeometry width="50" height="50" relative="1" as="geometry">
            <mxPoint x="250" y="410" as="sourcePoint" />
            <mxPoint x="210" y="380" as="targetPoint" />
          </mxGeometry>
        </mxCell>
        <mxCell id="ky9jY6T5JHGda51nhSNB-40" value="" style="rounded=0;whiteSpace=wrap;html=1;direction=south;dashed=1;fillColor=#d5e8d4;strokeColor=#82b366;shadow=1;" vertex="1" parent="1">
          <mxGeometry x="150" y="380" width="400" height="130" as="geometry" />
        </mxCell>
        <mxCell id="ky9jY6T5JHGda51nhSNB-41" value="Infra" style="text;html=1;align=center;verticalAlign=middle;whiteSpace=wrap;rounded=0;fontSize=9;fontFamily=Verdana;shadow=1;fontStyle=1" vertex="1" parent="1">
          <mxGeometry x="490" y="380" width="60" height="30" as="geometry" />
        </mxCell>
        <mxCell id="ky9jY6T5JHGda51nhSNB-53" value="" style="edgeStyle=orthogonalEdgeStyle;rounded=0;orthogonalLoop=1;jettySize=auto;html=1;dashed=1;endArrow=open;endFill=0;" edge="1" parent="1" source="ky9jY6T5JHGda51nhSNB-42">
          <mxGeometry relative="1" as="geometry">
            <mxPoint x="190.00000000000023" y="450.0000000000001" as="targetPoint" />
          </mxGeometry>
        </mxCell>
        <mxCell id="ky9jY6T5JHGda51nhSNB-42" value="&lt;font style=&quot;font-size: 9px;&quot;&gt;GPS service&lt;/font&gt;" style="rounded=1;whiteSpace=wrap;html=1;glass=0;shadow=1;" vertex="1" parent="1">
          <mxGeometry x="160" y="400" width="60" height="20" as="geometry" />
        </mxCell>
        <mxCell id="ky9jY6T5JHGda51nhSNB-44" value="" style="endArrow=classic;html=1;rounded=0;exitX=0.5;exitY=1;exitDx=0;exitDy=0;entryX=0.5;entryY=0;entryDx=0;entryDy=0;" edge="1" parent="1" source="ky9jY6T5JHGda51nhSNB-34" target="ky9jY6T5JHGda51nhSNB-38">
          <mxGeometry relative="1" as="geometry">
            <mxPoint x="280" y="340" as="sourcePoint" />
            <mxPoint x="380" y="340" as="targetPoint" />
          </mxGeometry>
        </mxCell>
        <mxCell id="ky9jY6T5JHGda51nhSNB-45" value="backup" style="edgeLabel;resizable=0;html=1;;align=center;verticalAlign=middle;labelBackgroundColor=#FF9999;" connectable="0" vertex="1" parent="ky9jY6T5JHGda51nhSNB-44">
          <mxGeometry relative="1" as="geometry" />
        </mxCell>
        <mxCell id="ky9jY6T5JHGda51nhSNB-47" value="&lt;font style=&quot;font-size: 9px;&quot;&gt;Biometric Service&lt;/font&gt;" style="rounded=1;whiteSpace=wrap;html=1;glass=0;shadow=1;" vertex="1" parent="1">
          <mxGeometry x="245" y="400" width="45" height="30" as="geometry" />
        </mxCell>
        <mxCell id="ky9jY6T5JHGda51nhSNB-48" value="&lt;font style=&quot;font-size: 9px;&quot;&gt;Notification Service&lt;/font&gt;" style="rounded=1;whiteSpace=wrap;html=1;glass=0;shadow=1;" vertex="1" parent="1">
          <mxGeometry x="334" y="400" width="46" height="30" as="geometry" />
        </mxCell>
        <mxCell id="ky9jY6T5JHGda51nhSNB-49" value="&lt;font style=&quot;font-size: 9px;&quot;&gt;Gallery Service&lt;/font&gt;" style="rounded=1;whiteSpace=wrap;html=1;glass=0;shadow=1;" vertex="1" parent="1">
          <mxGeometry x="395" y="390" width="40" height="30" as="geometry" />
        </mxCell>
        <mxCell id="ky9jY6T5JHGda51nhSNB-51" value="&lt;font style=&quot;font-size: 9px;&quot;&gt;Voice Assistant Service&lt;/font&gt;" style="rounded=1;whiteSpace=wrap;html=1;glass=0;shadow=1;" vertex="1" parent="1">
          <mxGeometry x="470" y="410" width="70" height="30" as="geometry" />
        </mxCell>
        <mxCell id="ky9jY6T5JHGda51nhSNB-56" value="&lt;font style=&quot;font-size: 9px;&quot; face=&quot;Verdana&quot;&gt;Android Location API&lt;/font&gt;" style="rounded=0;whiteSpace=wrap;html=1;" vertex="1" parent="1">
          <mxGeometry x="165" y="450" width="50" height="40" as="geometry" />
        </mxCell>
        <mxCell id="ky9jY6T5JHGda51nhSNB-57" value="" style="edgeStyle=orthogonalEdgeStyle;rounded=0;orthogonalLoop=1;jettySize=auto;html=1;dashed=1;endArrow=open;endFill=0;" edge="1" parent="1">
          <mxGeometry relative="1" as="geometry">
            <mxPoint x="267.5" y="430" as="sourcePoint" />
            <mxPoint x="267.5000000000002" y="460.0000000000001" as="targetPoint" />
          </mxGeometry>
        </mxCell>
        <mxCell id="ky9jY6T5JHGda51nhSNB-58" value="&lt;font style=&quot;font-size: 9px;&quot; face=&quot;Verdana&quot;&gt;Biometric Prompt API&lt;/font&gt;" style="rounded=0;whiteSpace=wrap;html=1;" vertex="1" parent="1">
          <mxGeometry x="242.5" y="460" width="50" height="40" as="geometry" />
        </mxCell>
        <mxCell id="ky9jY6T5JHGda51nhSNB-60" value="" style="edgeStyle=orthogonalEdgeStyle;rounded=0;orthogonalLoop=1;jettySize=auto;html=1;dashed=1;endArrow=open;endFill=0;" edge="1" parent="1">
          <mxGeometry relative="1" as="geometry">
            <mxPoint x="355" y="430" as="sourcePoint" />
            <mxPoint x="355.0000000000002" y="460.0000000000001" as="targetPoint" />
          </mxGeometry>
        </mxCell>
        <mxCell id="ky9jY6T5JHGda51nhSNB-61" value="&lt;font style=&quot;font-size: 9px;&quot; face=&quot;Verdana&quot;&gt;Notification&lt;/font&gt;&lt;div&gt;&lt;font style=&quot;font-size: 9px;&quot; face=&quot;Verdana&quot;&gt;Manager API&lt;/font&gt;&lt;/div&gt;" style="rounded=0;whiteSpace=wrap;html=1;" vertex="1" parent="1">
          <mxGeometry x="325" y="460" width="60" height="40" as="geometry" />
        </mxCell>
        <mxCell id="ky9jY6T5JHGda51nhSNB-62" value="" style="edgeStyle=orthogonalEdgeStyle;rounded=0;orthogonalLoop=1;jettySize=auto;html=1;dashed=1;endArrow=open;endFill=0;exitX=0.5;exitY=1;exitDx=0;exitDy=0;" edge="1" parent="1" source="ky9jY6T5JHGda51nhSNB-49">
          <mxGeometry relative="1" as="geometry">
            <mxPoint x="435" y="430" as="sourcePoint" />
            <mxPoint x="435.0000000000002" y="460.0000000000001" as="targetPoint" />
          </mxGeometry>
        </mxCell>
        <mxCell id="ky9jY6T5JHGda51nhSNB-63" value="&lt;font style=&quot;font-size: 9px;&quot; face=&quot;Verdana&quot;&gt;Photo Picker&lt;/font&gt;" style="rounded=0;whiteSpace=wrap;html=1;" vertex="1" parent="1">
          <mxGeometry x="410" y="460" width="50" height="40" as="geometry" />
        </mxCell>
        <mxCell id="ky9jY6T5JHGda51nhSNB-67" value="&lt;font style=&quot;font-size: 9px;&quot; face=&quot;Verdana&quot;&gt;Google Assistant SDK&lt;/font&gt;" style="rounded=0;whiteSpace=wrap;html=1;" vertex="1" parent="1">
          <mxGeometry x="475" y="465" width="50" height="40" as="geometry" />
        </mxCell>
        <mxCell id="ky9jY6T5JHGda51nhSNB-68" value="" style="edgeStyle=orthogonalEdgeStyle;rounded=0;orthogonalLoop=1;jettySize=auto;html=1;dashed=1;endArrow=open;endFill=0;exitX=0.5;exitY=1;exitDx=0;exitDy=0;" edge="1" parent="1" source="ky9jY6T5JHGda51nhSNB-51">
          <mxGeometry relative="1" as="geometry">
            <mxPoint x="470" y="385.0000000000001" as="sourcePoint" />
            <mxPoint x="500.0000000000002" y="465.0000000000001" as="targetPoint" />
          </mxGeometry>
        </mxCell>
        <mxCell id="ky9jY6T5JHGda51nhSNB-70" value="&lt;h1 style=&quot;margin-top: 0px;&quot;&gt;&lt;span style=&quot;background-color: transparent; color: light-dark(rgb(0, 0, 0), rgb(255, 255, 255));&quot;&gt;Faz acontecer&lt;/span&gt;&lt;span style=&quot;background-color: transparent; color: light-dark(rgb(0, 0, 0), rgb(255, 255, 255)); font-size: 12px; font-weight: normal;&quot;&gt;&amp;nbsp;Architecture&lt;/span&gt;&lt;/h1&gt;" style="text;html=1;whiteSpace=wrap;overflow=hidden;rounded=0;" vertex="1" parent="1">
          <mxGeometry x="315" y="70" width="195" height="120" as="geometry" />
        </mxCell>
      </root>
    </mxGraphModel>
  </diagram>
</mxfile>
